<svg width="2427" height="3174" viewBox="0 0 2427 3174" fill="none" xmlns="http://www.w3.org/2000/svg">
<g clip-path="url(#clip0_0_3)">
<path d="M2426.91 0H0V3173.35H2426.91V0Z" fill="#1EC8AA"/>
<path d="M1561.2 367.98C1557.64 356.13 1545.16 349.391 1533.3 352.952L1441.6 380.43L1444.82 391.171L1437.98 393.218C1415.45 400.908 1401.25 415.862 1395.66 438.153L1392.01 456.09L912.082 456.203L976.057 719.153L1162.84 742.816C1160.65 744.533 1159.08 747.051 1158.65 750.027C1157.76 756.158 1162.01 761.84 1168.14 762.724L1186.01 765.303C1186.07 765.31 1186.13 765.34 1186.19 765.355C1195.98 767.064 1207.16 777.805 1209.29 787.819L1229.55 870.098C1231.2 878.927 1229.31 888.379 1224.49 895.41C1219.68 902.396 1212.2 906.856 1202.26 908.685C1202.01 908.73 1201.78 908.834 1201.53 908.894H1051.2C1011.12 908.894 995.972 916.158 980.576 930.459C976.042 934.672 975.779 941.77 979.992 946.297C982.195 948.673 985.201 949.887 988.207 949.887C990.935 949.887 993.671 948.891 995.837 946.889C1003.63 939.656 1010.99 934.357 1030.3 932.295L1038.34 947.789C1030.61 955.464 1025.82 966.093 1025.82 977.838C1025.82 1001.26 1044.83 1020.25 1068.24 1020.25C1091.65 1020.25 1110.64 1001.28 1110.64 977.838C1110.64 954.445 1091.65 935.444 1068.24 935.444C1066.54 935.444 1064.86 935.579 1063.21 935.766L1061.22 931.329H1358.52C1358.95 931.329 1359.36 931.269 1359.79 931.254L1359.74 931.284L1368.3 947.789C1360.58 955.464 1355.8 966.093 1355.8 977.838C1355.8 1001.28 1374.77 1020.25 1398.2 1020.25C1421.63 1020.25 1440.59 1001.28 1440.59 977.838C1440.59 954.445 1421.63 935.444 1398.2 935.444C1396.67 935.444 1395.16 935.534 1393.67 935.691L1387.88 922.341C1392.16 919.471 1396.07 916.008 1399.4 911.9C1410.41 898.333 1414.44 879.752 1410.47 860.908L1394.08 805.554C1388.66 784.169 1373.97 771.164 1350.61 766.622L1351.61 766.749L1417.51 443.138C1421.12 428.784 1429.92 419.677 1444.82 414.58L1451.25 412.654L1454.47 423.395L1546.17 395.924C1558.03 392.341 1564.75 379.861 1561.2 367.98ZM994.061 698.308L984.032 657.075H994.061V698.308ZM994.061 634.656H978.575L960.961 562.249H994.061V634.656V634.656ZM994.061 539.83H955.504L940.61 478.614L994.053 478.607V539.83H994.061ZM1058.87 707.048L1016.48 701.673V657.075H1058.87V707.048ZM1058.87 634.656H1016.48V562.249H1058.87V634.656ZM1058.87 539.83H1016.48V478.599L1058.87 478.592V539.83ZM1123.69 715.263L1081.29 709.888V657.075H1123.69V715.263ZM1123.69 634.656H1081.29V562.249H1123.69V634.656ZM1123.69 539.83H1081.29V478.592L1123.69 478.584V539.83ZM1188.51 723.47L1146.11 718.096V657.075H1188.51V723.47ZM1188.51 634.656H1146.11V562.249H1188.51V634.656ZM1188.51 539.83H1146.11V478.577L1188.51 478.569V539.83ZM1068.24 966.617C1074.42 966.617 1079.45 971.654 1079.45 977.831C1079.45 984.052 1074.43 989.029 1068.24 989.029C1062.05 989.029 1057.02 984.052 1057.02 977.831C1057.02 971.654 1062.05 966.617 1068.24 966.617ZM1275.75 562.249H1318.14V634.656H1275.75V562.249ZM1275.75 657.075H1318.14V739.901L1275.75 734.526V657.075ZM1210.93 478.554L1253.32 478.547V539.83H1210.93V478.554ZM1210.93 562.249H1253.32V634.656H1210.93V562.249ZM1210.93 657.075H1253.32V731.685L1210.93 726.311V657.075ZM1398.2 966.617C1404.36 966.617 1409.4 971.654 1409.4 977.831C1409.4 984.052 1404.36 989.029 1398.2 989.029C1391.98 989.029 1386.98 984.052 1386.98 977.831C1386.98 971.654 1391.98 966.617 1398.2 966.617ZM1372.46 811.49L1388.61 865.945C1391.08 878.163 1388.73 889.451 1381.98 897.764C1376.16 904.937 1367.82 908.887 1358.51 908.887H1242.35C1242.54 908.617 1242.77 908.377 1242.96 908.1C1251.21 896.092 1254.36 880.741 1251.45 865.353L1231.14 782.812C1230.3 778.84 1228.68 774.927 1226.64 771.157L1343.13 787.947C1360.13 790.383 1368.86 797.294 1372.46 811.49ZM1340.57 708.637V657.075H1351.07L1340.57 708.637ZM1355.64 634.656H1340.56V562.249H1370.38L1355.64 634.656ZM1374.95 539.83H1340.57V478.899H1318.14V539.83H1275.76V478.547L1387.44 478.524L1374.95 539.83Z" fill="#FFF0E5"/>
<path d="M584.478 2631.19C584.478 2633.83 584.496 2636.71 584.532 2639.81C584.567 2642.92 584.442 2646.02 584.157 2649.13C583.871 2652.24 583.354 2655.23 582.604 2658.12C581.854 2661.02 580.694 2663.57 579.124 2665.78C577.553 2667.99 575.501 2669.76 572.966 2671.08C570.432 2672.4 567.273 2673.06 563.489 2673.06H544V2592.75H562.74C566.666 2592.75 569.914 2593.3 572.485 2594.41C575.055 2595.52 577.161 2597.02 578.803 2598.91C580.444 2600.8 581.658 2603.01 582.443 2605.55C583.229 2608.08 583.764 2610.78 584.05 2613.63C584.335 2616.49 584.478 2619.41 584.478 2622.41V2631.19H584.478ZM577.196 2631.94L577.196 2627.34C577.196 2625.34 577.143 2623.27 577.036 2621.13C576.928 2618.99 576.786 2616.95 576.607 2615.02C576.429 2613.1 576.197 2611.67 575.911 2610.74C574.697 2607.17 573.02 2604.53 570.878 2602.82C568.736 2601.1 565.738 2600.25 561.883 2600.25H551.174V2665.35H563.275C564.846 2665.35 566.273 2665.07 567.558 2664.5C568.843 2663.93 570.021 2663.16 571.092 2662.19C572.163 2661.23 573.073 2660.12 573.823 2658.87C574.572 2657.63 575.197 2656.32 575.697 2654.97C576.054 2654.04 576.321 2652.52 576.5 2650.41C576.679 2648.31 576.821 2646.08 576.928 2643.72C577.035 2641.37 577.107 2639.1 577.143 2636.92C577.178 2634.74 577.196 2633.08 577.196 2631.94H577.196ZM652.158 2652.29C652.158 2659.86 650.463 2665.37 647.072 2668.83C643.68 2672.3 638.166 2674.03 630.527 2674.03C623.531 2674.03 618.408 2672.1 615.16 2668.24C611.912 2664.39 610.288 2659.07 610.288 2652.29V2613.74C610.288 2606.39 612.019 2600.92 615.482 2597.35C618.944 2593.79 624.387 2592 631.812 2592C638.88 2592 644.038 2593.87 647.286 2597.62C650.534 2601.37 652.158 2606.67 652.158 2613.52V2652.29ZM644.662 2652.07L644.662 2613.42C644.662 2609.35 643.591 2605.96 641.449 2603.24C639.308 2600.53 636.059 2599.17 631.705 2599.17C626.493 2599.17 622.87 2600.53 620.836 2603.24C618.801 2605.96 617.784 2609.78 617.784 2614.7V2651.65C617.784 2653.72 618.016 2655.66 618.48 2657.48C618.944 2659.3 619.693 2660.89 620.729 2662.25C621.764 2663.6 623.084 2664.67 624.691 2665.46C626.297 2666.25 628.242 2666.64 630.527 2666.64C635.524 2666.64 639.129 2665.42 641.342 2663C643.555 2660.57 644.662 2656.93 644.662 2652.07H644.662ZM722.408 2673.06H714.056L686.214 2609.88V2673.06H678.504V2592.75H686.214L714.163 2653.25L714.805 2592.75H722.408V2673.06ZM758.927 2607.74H750.36V2599.5L758.927 2592.75V2607.74ZM824.572 2600.57H807.974V2673.06H800.05V2600.57H783.452V2592.75H824.572V2600.57ZM962.075 2592.75L943.656 2673.06H936.803L923.417 2607.53L910.139 2673.06H903.392L884.974 2592.75H892.684L906.176 2657L920.954 2592.96L920.847 2592.75H920.954H926.094L926.683 2595.37C927.076 2597.12 927.593 2599.41 928.236 2602.23C928.878 2605.05 929.61 2608.29 930.431 2611.97C931.252 2615.65 932.109 2619.41 933.001 2623.27C933.893 2627.12 934.768 2630.94 935.625 2634.73C936.481 2638.51 937.267 2641.96 937.981 2645.06C938.694 2648.17 939.301 2650.79 939.801 2652.93C940.301 2655.07 940.622 2656.43 940.765 2657L954.258 2592.75H962.075H962.075ZM1025.26 2652.29C1025.26 2659.86 1023.56 2665.37 1020.17 2668.83C1016.78 2672.3 1011.27 2674.03 1003.63 2674.03C996.63 2674.03 991.507 2672.1 988.259 2668.24C985.012 2664.39 983.387 2659.07 983.387 2652.29V2613.74C983.387 2606.39 985.118 2600.92 988.581 2597.35C992.043 2593.79 997.486 2592 1004.91 2592C1011.98 2592 1017.14 2593.87 1020.38 2597.62C1023.63 2601.37 1025.26 2606.67 1025.26 2613.52V2652.29V2652.29ZM1017.76 2652.07L1017.76 2613.42C1017.76 2609.35 1016.69 2605.96 1014.55 2603.24C1012.41 2600.53 1009.16 2599.17 1004.8 2599.17C999.592 2599.17 995.969 2600.53 993.935 2603.24C991.9 2605.96 990.883 2609.78 990.883 2614.7V2651.65C990.883 2653.72 991.115 2655.66 991.579 2657.48C992.043 2659.3 992.793 2660.89 993.828 2662.25C994.863 2663.6 996.184 2664.67 997.79 2665.46C999.396 2666.25 1001.34 2666.64 1003.63 2666.64C1008.62 2666.64 1012.23 2665.42 1014.44 2663C1016.65 2660.57 1017.76 2656.93 1017.76 2652.07H1017.76ZM1099.68 2673.06L1090.47 2673.06L1073.66 2640.62H1059.74V2673.06H1052.57V2592.75H1070.99C1078.34 2592.75 1084.16 2594.86 1088.44 2599.07C1092.72 2603.28 1094.86 2609.06 1094.86 2616.42C1094.86 2618.7 1094.56 2621.02 1093.95 2623.38C1093.35 2625.73 1092.47 2627.94 1091.33 2630.01C1090.19 2632.09 1088.78 2633.96 1087.1 2635.64C1085.42 2637.31 1083.51 2638.62 1081.37 2639.55L1099.68 2673.06ZM1087.26 2615.88C1087.26 2613.38 1086.83 2611.13 1085.98 2609.13C1085.12 2607.13 1083.94 2605.44 1082.44 2604.05C1080.94 2602.65 1079.16 2601.58 1077.09 2600.83C1075.02 2600.08 1072.77 2599.71 1070.34 2599.71H1059.74V2633.23H1070.99C1076.7 2633.23 1080.84 2631.69 1083.41 2628.62C1085.98 2625.55 1087.26 2621.31 1087.26 2615.88V2615.88ZM1170.58 2673.06L1161.37 2673.06L1144.55 2640.62H1130.63V2673.06H1123.46V2592.75H1141.88C1149.23 2592.75 1155.05 2594.86 1159.33 2599.07C1163.62 2603.28 1165.76 2609.06 1165.76 2616.42C1165.76 2618.7 1165.45 2621.02 1164.85 2623.38C1164.24 2625.73 1163.37 2627.94 1162.22 2630.01C1161.08 2632.09 1159.67 2633.96 1157.99 2635.64C1156.32 2637.31 1154.41 2638.62 1152.26 2639.55L1170.58 2673.06ZM1158.15 2615.88C1158.15 2613.38 1157.73 2611.13 1156.87 2609.13C1156.01 2607.13 1154.84 2605.44 1153.34 2604.05C1151.84 2602.65 1150.05 2601.58 1147.98 2600.83C1145.91 2600.08 1143.66 2599.71 1141.24 2599.71H1130.63V2633.23H1141.88C1147.59 2633.23 1151.73 2631.69 1154.3 2628.62C1156.87 2625.55 1158.15 2621.31 1158.15 2615.88V2615.88ZM1231.62 2592.75L1212.66 2636.44V2673.06H1204.95V2636.44L1186 2592.75H1194.57L1208.7 2627.23L1223.05 2592.75H1231.62V2592.75ZM1265.14 2673.06L1256.68 2679.7V2664.82H1265.14V2673.06V2673.06ZM1402.64 2592.75L1384.22 2673.06H1377.37L1363.98 2607.53L1350.7 2673.06H1343.96L1325.54 2592.75H1333.25L1346.74 2657L1361.52 2592.96L1361.41 2592.75H1361.52H1366.66L1367.25 2595.37C1367.64 2597.12 1368.16 2599.41 1368.8 2602.23C1369.44 2605.05 1370.18 2608.29 1371 2611.97C1371.82 2615.65 1372.67 2619.41 1373.57 2623.27C1374.46 2627.12 1375.33 2630.94 1376.19 2634.73C1377.05 2638.51 1377.83 2641.96 1378.55 2645.06C1379.26 2648.17 1379.87 2650.79 1380.37 2652.93C1380.87 2655.07 1381.19 2656.43 1381.33 2657L1394.82 2592.75H1402.64H1402.64ZM1464.54 2673.06H1424.38V2592.75H1463.79V2600.89H1431.77V2628.52H1463.57V2635.48H1431.77V2664.92H1464.54V2673.06V2673.06ZM1567.34 2673.06H1559.21L1559.1 2636.65H1533.4L1533.51 2673.06H1525.47V2592.75H1533.51L1533.4 2629.05H1559.1L1559.21 2592.75H1567.34V2673.06ZM1639.95 2673.06H1632.45L1626.78 2650.04H1603.43L1597.76 2673.06H1590.48L1612.22 2592.75H1618.32L1639.95 2673.06ZM1624.96 2642.87L1615.43 2603.14L1605.25 2642.87H1624.96ZM1701.21 2592.75L1679.36 2673.06H1673.26L1651.52 2592.75H1659.12L1676.25 2658.71L1693.82 2592.75H1701.21V2592.75ZM1763.32 2673.06H1723.16V2592.75H1762.57V2600.89H1730.55V2628.52H1762.35V2635.48H1730.55V2664.92H1763.32V2673.06V2673.06ZM1832.29 2673.06H1824.25V2592.75H1832.29V2673.06ZM1898.04 2600.57H1881.44V2673.06H1873.52V2600.57H1856.92V2592.75H1898.04V2600.57V2600.57ZM1930.81 2592.75L1930.27 2655.61H1923.53L1922.99 2592.75H1930.81V2592.75ZM1930.81 2673.06H1922.99V2664.82H1930.81V2673.06Z" fill="white"/>
<path d="M441.245 1585.08L559.238 1867.43L677.671 1585.08H713.706V1905H686.68V1765.69L688.877 1622.87L569.785 1905H548.911L430.259 1623.97L432.456 1764.81V1905H405.43V1585.08H441.245ZM863.999 1867.21L933.433 1667.26H961.777L860.264 1945.43L854.99 1957.73C841.953 1986.59 821.812 2001.02 794.565 2001.02C788.267 2001.02 781.528 2000 774.351 1997.94L774.131 1976.19L787.754 1977.51C800.645 1977.51 811.045 1974.29 818.955 1967.84C827.012 1961.54 833.823 1950.63 839.39 1935.1L851.035 1903.02L761.387 1667.26H790.171L863.999 1867.21ZM1299.28 1826.34C1299.28 1808.61 1293.05 1794.62 1280.6 1784.37C1268.15 1773.97 1245.37 1764.16 1212.27 1754.93C1179.16 1745.55 1154.99 1735.37 1139.76 1724.38C1118.08 1708.86 1107.24 1688.5 1107.24 1663.3C1107.24 1638.84 1117.27 1618.99 1137.34 1603.75C1157.55 1588.37 1183.33 1580.68 1214.68 1580.68C1235.92 1580.68 1254.89 1584.79 1271.59 1592.99C1288.44 1601.19 1301.47 1612.62 1310.7 1627.27C1319.93 1641.91 1324.55 1658.25 1324.55 1676.26H1297.3C1297.3 1654.44 1289.83 1636.93 1274.89 1623.75C1259.95 1610.42 1239.88 1603.75 1214.68 1603.75C1190.22 1603.75 1170.74 1609.25 1156.24 1620.23C1141.73 1631.07 1134.48 1645.28 1134.48 1662.86C1134.48 1679.12 1141 1692.38 1154.04 1702.63C1167.08 1712.89 1187.95 1721.97 1216.66 1729.88C1245.37 1737.64 1267.12 1745.77 1281.92 1754.27C1296.71 1762.62 1307.85 1772.65 1315.32 1784.37C1322.79 1796.09 1326.52 1809.93 1326.52 1825.9C1326.52 1851.09 1316.42 1871.31 1296.2 1886.54C1276.13 1901.78 1249.62 1909.39 1216.66 1909.39C1194.1 1909.39 1173.37 1905.37 1154.48 1897.31C1135.73 1889.25 1121.45 1877.97 1111.63 1863.47C1101.96 1848.97 1097.13 1832.34 1097.13 1813.59H1124.16C1124.16 1836.15 1132.58 1853.95 1149.42 1866.99C1166.27 1880.02 1188.68 1886.54 1216.66 1886.54C1241.56 1886.54 1261.56 1881.05 1276.65 1870.06C1291.73 1859.08 1299.28 1844.5 1299.28 1826.34ZM1404.97 1707.47C1413.61 1693.26 1424.67 1682.27 1438.14 1674.51C1451.62 1666.74 1466.34 1662.86 1482.31 1662.86C1507.8 1662.86 1526.77 1670.04 1539.22 1684.39C1551.67 1698.75 1557.97 1720.28 1558.12 1748.99V1905H1531.97V1748.77C1531.82 1727.53 1527.28 1711.71 1518.34 1701.31C1509.56 1690.91 1495.42 1685.71 1475.94 1685.71C1459.68 1685.71 1445.25 1690.84 1432.65 1701.09C1420.2 1711.2 1410.97 1724.9 1404.97 1742.18V1905H1378.82V1567.5H1404.97V1707.47ZM1611.29 1782.61C1611.29 1759.76 1615.68 1739.18 1624.47 1720.87C1633.41 1702.56 1645.93 1688.35 1662.05 1678.24C1678.31 1667.99 1696.69 1662.86 1717.2 1662.86C1748.84 1662.86 1774.47 1673.99 1794.1 1696.26C1813.73 1718.38 1823.54 1747.75 1823.54 1784.37V1789.86C1823.54 1812.86 1819.08 1833.59 1810.14 1852.05C1801.35 1870.36 1788.9 1884.49 1772.79 1894.45C1756.67 1904.41 1738.29 1909.39 1717.64 1909.39C1686.14 1909.39 1660.51 1898.33 1640.73 1876.22C1621.1 1853.95 1611.29 1824.51 1611.29 1787.89V1782.61ZM1637.66 1789.86C1637.66 1818.28 1644.98 1841.65 1659.63 1859.96C1674.42 1878.12 1693.76 1887.2 1717.64 1887.2C1741.37 1887.2 1760.56 1878.12 1775.21 1859.96C1790 1841.65 1797.4 1817.55 1797.4 1787.67V1782.61C1797.4 1764.45 1794.03 1747.82 1787.29 1732.73C1780.55 1717.65 1771.1 1706 1758.95 1697.8C1746.79 1689.45 1732.87 1685.27 1717.2 1685.27C1693.76 1685.27 1674.64 1694.5 1659.85 1712.96C1645.05 1731.27 1637.66 1755.29 1637.66 1785.03V1789.86ZM2069.2 1788.54C2069.2 1825.61 2061 1855.05 2044.59 1876.88C2028.18 1898.55 2006.21 1909.39 1978.67 1909.39C1946.15 1909.39 1921.25 1897.97 1903.96 1875.12V1996.41H1877.82V1667.26H1902.21L1903.53 1700.87C1920.66 1675.53 1945.49 1662.86 1978.01 1662.86C2006.43 1662.86 2028.7 1673.63 2044.81 1695.16C2061.07 1716.69 2069.2 1746.58 2069.2 1784.81V1788.54ZM2042.83 1783.93C2042.83 1753.61 2036.61 1729.66 2024.16 1712.08C2011.7 1694.5 1994.35 1685.71 1972.08 1685.71C1955.97 1685.71 1942.12 1689.59 1930.55 1697.36C1918.98 1705.12 1910.12 1716.4 1903.96 1731.2V1845.23C1910.26 1858.86 1919.27 1869.26 1930.99 1876.44C1942.71 1883.61 1956.55 1887.2 1972.52 1887.2C1994.64 1887.2 2011.85 1878.41 2024.16 1860.83C2036.61 1843.11 2042.83 1817.48 2042.83 1783.93Z" fill="white"/>
</g>
<defs>
<clipPath id="clip0_0_3">
<rect width="2426.91" height="3173.35" fill="white"/>
</clipPath>
</defs>
</svg>
